<?xml version="1.0" encoding="UTF-8"?>
<svg width="800" height="600" viewBox="0 0 800 600" xmlns="http://www.w3.org/2000/svg">
  <!-- Background with abstract pattern -->
  <defs>
    <linearGradient id="bgGradient" x1="0%" y1="0%" x2="100%" y2="100%">
      <stop offset="0%" stop-color="#f0f9ff" />
      <stop offset="100%" stop-color="#e0f2fe" />
    </linearGradient>
    <pattern id="pattern" width="50" height="50" patternUnits="userSpaceOnUse">
      <circle cx="25" cy="25" r="1" fill="#3b82f6" opacity="0.2" />
    </pattern>
  </defs>
  
  <rect width="800" height="600" fill="url(#bgGradient)" />
  <rect width="800" height="600" fill="url(#pattern)" />
  
  <!-- Abstract floating shapes -->
  <circle cx="150" cy="100" r="60" fill="#3b82f6" opacity="0.1" />
  <circle cx="650" cy="500" r="80" fill="#3b82f6" opacity="0.1" />
  <circle cx="700" cy="150" r="40" fill="#3b82f6" opacity="0.1" />
  <circle cx="100" cy="450" r="50" fill="#3b82f6" opacity="0.1" />
  
  <!-- Central TaskPal visualization -->
  <g transform="translate(400, 300)">
    <!-- Orbit circles -->
    <circle cx="0" cy="0" r="180" fill="none" stroke="#3b82f6" stroke-width="1" stroke-dasharray="5,5" />
    <circle cx="0" cy="0" r="130" fill="none" stroke="#3b82f6" stroke-width="1" stroke-dasharray="5,5" />
    <circle cx="0" cy="0" r="80" fill="none" stroke="#3b82f6" stroke-width="1" stroke-dasharray="5,5" />
    
    <!-- Orbiting task items -->
    <!-- Outer orbit -->
    <g transform="rotate(30)">
      <circle cx="180" cy="0" r="25" fill="#bfdbfe" />
      <text x="180" y="5" font-family="Arial" font-size="12" fill="#1e40af" text-anchor="middle">Project</text>
    </g>
    
    <g transform="rotate(90)">
      <circle cx="180" cy="0" r="25" fill="#bfdbfe" />
      <text x="180" y="5" font-family="Arial" font-size="12" fill="#1e40af" text-anchor="middle">Meeting</text>
    </g>
    
    <g transform="rotate(150)">
      <circle cx="180" cy="0" r="25" fill="#bfdbfe" />
      <text x="180" y="5" font-family="Arial" font-size="12" fill="#1e40af" text-anchor="middle">Deadline</text>
    </g>
    
    <g transform="rotate(210)">
      <circle cx="180" cy="0" r="25" fill="#bfdbfe" />
      <text x="180" y="5" font-family="Arial" font-size="12" fill="#1e40af" text-anchor="middle">Review</text>
    </g>
    
    <g transform="rotate(270)">
      <circle cx="180" cy="0" r="25" fill="#bfdbfe" />
      <text x="180" y="5" font-family="Arial" font-size="12" fill="#1e40af" text-anchor="middle">Planning</text>
    </g>
    
    <g transform="rotate(330)">
      <circle cx="180" cy="0" r="25" fill="#bfdbfe" />
      <text x="180" y="5" font-family="Arial" font-size="12" fill="#1e40af" text-anchor="middle">Goals</text>
    </g>
    
    <!-- Middle orbit -->
    <g transform="rotate(45)">
      <circle cx="130" cy="0" r="20" fill="#93c5fd" />
      <text x="130" y="5" font-family="Arial" font-size="10" fill="white" text-anchor="middle">Team</text>
    </g>
    
    <g transform="rotate(135)">
      <circle cx="130" cy="0" r="20" fill="#93c5fd" />
      <text x="130" y="5" font-family="Arial" font-size="10" fill="white" text-anchor="middle">Client</text>
    </g>
    
    <g transform="rotate(225)">
      <circle cx="130" cy="0" r="20" fill="#93c5fd" />
      <text x="130" y="5" font-family="Arial" font-size="10" fill="white" text-anchor="middle">Personal</text>
    </g>
    
    <g transform="rotate(315)">
      <circle cx="130" cy="0" r="20" fill="#93c5fd" />
      <text x="130" y="5" font-family="Arial" font-size="10" fill="white" text-anchor="middle">Urgent</text>
    </g>
    
    <!-- Inner orbit -->
    <g transform="rotate(60)">
      <circle cx="80" cy="0" r="15" fill="#60a5fa" />
      <text x="80" y="4" font-family="Arial" font-size="8" fill="white" text-anchor="middle">Today</text>
    </g>
    
    <g transform="rotate(180)">
      <circle cx="80" cy="0" r="15" fill="#60a5fa" />
      <text x="80" y="4" font-family="Arial" font-size="8" fill="white" text-anchor="middle">Week</text>
    </g>
    
    <g transform="rotate(300)">
      <circle cx="80" cy="0" r="15" fill="#60a5fa" />
      <text x="80" y="4" font-family="Arial" font-size="8" fill="white" text-anchor="middle">Month</text>
    </g>
    
    <!-- Central TaskPal logo -->
    <circle cx="0" cy="0" r="40" fill="#3b82f6" />
    <text x="0" y="8" font-family="Arial" font-size="20" fill="white" font-weight="bold" text-anchor="middle">TP</text>
    
    <!-- Connecting lines -->
    <line x1="35" y1="0" x2="65" y2="0" stroke="#dbeafe" stroke-width="2" />
    <line x1="0" y1="35" x2="0" y2="65" stroke="#dbeafe" stroke-width="2" />
    <line x1="-35" y1="0" x2="-65" y2="0" stroke="#dbeafe" stroke-width="2" />
    <line x1="0" y1="-35" x2="0" y2="-65" stroke="#dbeafe" stroke-width="2" />
    <line x1="25" y1="25" x2="45" y2="45" stroke="#dbeafe" stroke-width="2" />
    <line x1="-25" y1="25" x2="-45" y2="45" stroke="#dbeafe" stroke-width="2" />
    <line x1="-25" y1="-25" x2="-45" y2="-45" stroke="#dbeafe" stroke-width="2" />
    <line x1="25" y1="-25" x2="45" y2="-45" stroke="#dbeafe" stroke-width="2" />
  </g>
  
  <!-- Floating task cards -->
  <g transform="translate(150, 150)">
    <rect x="0" y="0" width="120" height="80" rx="10" ry="10" fill="white" stroke="#e0e7ff" stroke-width="2" />
    <rect x="10" y="10" width="20" height="20" rx="4" ry="4" fill="#3b82f6" />
    <text x="40" y="25" font-family="Arial" font-size="12" fill="#1e293b">Priority Task</text>
    <line x1="10" y1="40" x2="110" y2="40" stroke="#f1f5f9" stroke-width="2" />
    <text x="10" y="60" font-family="Arial" font-size="10" fill="#64748b">Due: Today</text>
  </g>
  
  <g transform="translate(550, 200)">
    <rect x="0" y="0" width="120" height="80" rx="10" ry="10" fill="white" stroke="#e0e7ff" stroke-width="2" />
    <rect x="10" y="10" width="20" height="20" rx="4" ry="4" fill="#60a5fa" />
    <text x="40" y="25" font-family="Arial" font-size="12" fill="#1e293b">Team Meeting</text>
    <line x1="10" y1="40" x2="110" y2="40" stroke="#f1f5f9" stroke-width="2" />
    <text x="10" y="60" font-family="Arial" font-size="10" fill="#64748b">2:00 PM</text>
  </g>
  
  <g transform="translate(200, 400)">
    <rect x="0" y="0" width="120" height="80" rx="10" ry="10" fill="white" stroke="#e0e7ff" stroke-width="2" />
    <rect x="10" y="10" width="20" height="20" rx="4" ry="4" fill="#93c5fd" />
    <text x="40" y="25" font-family="Arial" font-size="12" fill="#1e293b">Project Plan</text>
    <line x1="10" y1="40" x2="110" y2="40" stroke="#f1f5f9" stroke-width="2" />
    <text x="10" y="60" font-family="Arial" font-size="10" fill="#64748b">In Progress</text>
  </g>
  
  <g transform="translate(500, 450)">
    <rect x="0" y="0" width="120" height="80" rx="10" ry="10" fill="white" stroke="#e0e7ff" stroke-width="2" />
    <rect x="10" y="10" width="20" height="20" rx="4" ry="4" fill="#bfdbfe" />
    <text x="40" y="25" font-family="Arial" font-size="12" fill="#1e293b">Client Review</text>
    <line x1="10" y1="40" x2="110" y2="40" stroke="#f1f5f9" stroke-width="2" />
    <text x="10" y="60" font-family="Arial" font-size="10" fill="#64748b">Tomorrow</text>
  </g>
</svg>
